<?xml version="1.0" encoding="utf-8"?>
<!-- Generator: Adobe Illustrator 26.5.0, SVG Export Plug-In . SVG Version: 6.00 Build 0)  -->
<svg version="1.1" id="Layer_1" xmlns="http://www.w3.org/2000/svg" xmlns:xlink="http://www.w3.org/1999/xlink" x="0px" y="0px"
	 viewBox="0 0 970 600" style="enable-background:new 0 0 970 600;" xml:space="preserve">
<style type="text/css">
	.st0{fill:#F9F9FA;}
	.st1{fill:#617F63;}
	.st2{font-family:'Arial-Black';}
	.st3{font-size:70.1775px;}
</style>
<path class="st0" d="M575.94,309.74l-32.09,10.31c-4.33,1.39-6.5,6.22-4.68,10.38l13.53,30.87c2.9,6.61-4.11,13.2-10.53,9.9
	l-29.98-15.4c-4.04-2.08-8.99-0.2-10.65,4.03l-12.26,31.39c-2.63,6.72-12.24,6.43-14.44-0.44l-10.31-32.09
	c-1.39-4.33-6.22-6.5-10.38-4.68l-30.87,13.53c-6.61,2.9-13.2-4.11-9.9-10.53l15.4-29.98c2.08-4.04,0.2-8.99-4.03-10.65
	l-31.39-12.26c-6.72-2.63-6.43-12.24,0.44-14.44l32.09-10.31c4.33-1.39,6.5-6.22,4.68-10.38l-13.53-30.87
	c-2.9-6.61,4.11-13.2,10.53-9.9l29.98,15.4c4.04,2.08,8.99,0.2,10.65-4.03l12.26-31.39c2.63-6.72,12.24-6.43,14.44,0.44l10.31,32.09
	c1.39,4.33,6.22,6.5,10.38,4.68l30.87-13.53c6.61-2.9,13.2,4.11,9.9,10.53l-15.4,29.98c-2.08,4.04-0.2,8.99,4.03,10.65l31.39,12.26
	C583.11,297.92,582.81,307.53,575.94,309.74z"/>
<polygon class="st1" points="570.31,302.6 523.89,317.52 543.46,362.18 500.09,339.9 482.35,385.31 467.44,338.9 422.78,358.47 
	445.06,315.1 399.64,297.36 446.06,282.44 426.49,237.79 469.86,260.06 487.6,214.65 502.51,261.07 547.17,241.5 524.9,284.87 "/>
<text transform="matrix(1 0 0 1 454.3713 322.8201)" class="st0 st2 st3">Q</text>
</svg>
