<?xml version="1.0" standalone="no"?>
<!DOCTYPE svg PUBLIC "-//W3C//DTD SVG 20010904//EN"
 "http://www.w3.org/TR/2001/REC-SVG-20010904/DTD/svg10.dtd">
<svg version="1.0" xmlns="http://www.w3.org/2000/svg"
 width="512.000000pt" height="512.000000pt" viewBox="0 0 512.000000 512.000000"
 preserveAspectRatio="xMidYMid meet">
<metadata>
Created by potrace 1.14, written by Peter Selinger 2001-2017
</metadata>
<g transform="translate(0.000000,512.000000) scale(0.100000,-0.100000)"
fill="#000000" stroke="none">
<path d="M945 4988 c-83 -29 -129 -125 -100 -210 16 -48 237 -351 273 -374 42
-28 120 -30 169 -5 71 36 110 135 82 209 -8 21 -104 160 -146 212 -7 8 -33 43
-58 78 -65 90 -137 119 -220 90z"/>
<path d="M4035 4977 c-48 -27 -269 -321 -286 -382 -33 -116 55 -223 175 -213
28 2 63 12 78 22 37 24 257 327 274 376 29 83 -20 180 -105 209 -51 17 -92 13
-136 -12z"/>
<path d="M2497 4729 c-73 -11 -167 -60 -219 -114 -39 -40 -82 -118 -251 -460
l-204 -411 -134 -18 c-74 -10 -141 -20 -149 -21 -44 -8 -136 -21 -200 -30 -25
-3 -56 -8 -70 -10 -14 -3 -42 -7 -64 -10 -146 -17 -249 -35 -303 -52 -100 -31
-204 -135 -240 -238 -13 -34 -18 -80 -18 -145 0 -88 3 -100 34 -162 30 -60 70
-103 362 -389 315 -308 329 -323 324 -353 -3 -17 -21 -119 -39 -226 -19 -107
-37 -213 -40 -235 -4 -22 -18 -105 -33 -185 -33 -181 -37 -283 -16 -347 56
-166 193 -272 363 -279 116 -5 108 -8 540 219 52 27 136 71 185 97 50 26 123
64 164 85 l74 39 41 -23 c23 -12 111 -59 196 -104 85 -44 214 -112 285 -150
283 -149 310 -160 405 -163 152 -4 272 62 353 192 60 97 67 203 29 404 -11 58
-23 121 -26 140 -3 19 -19 116 -36 215 -17 99 -33 195 -36 214 -3 18 -8 43
-10 55 -15 79 -15 81 9 106 13 14 162 160 331 324 273 267 310 306 337 364 74
155 36 351 -91 466 -70 63 -155 96 -290 111 -25 3 -56 7 -70 10 -36 7 -74 12
-166 25 -44 6 -89 12 -100 14 -10 2 -41 7 -69 10 -27 4 -61 9 -75 11 -14 2
-74 11 -135 20 -60 9 -118 17 -129 19 -23 3 -12 -18 -238 439 -159 323 -199
396 -237 433 -90 90 -217 132 -344 113z m325 -799 c193 -386 233 -458 261
-478 34 -23 81 -32 322 -67 61 -8 126 -18 145 -21 19 -3 53 -7 75 -10 22 -3
65 -9 95 -14 30 -6 73 -12 95 -15 42 -5 120 -16 145 -20 22 -4 124 -19 132
-19 4 -1 16 -9 28 -18 40 -35 27 -56 -122 -202 -574 -558 -586 -570 -594 -611
-11 -55 -11 -51 3 -135 8 -41 16 -90 19 -109 3 -18 8 -43 10 -55 4 -21 41
-236 50 -291 2 -16 9 -55 14 -85 5 -30 12 -71 15 -90 3 -19 15 -84 25 -144 24
-132 24 -118 0 -144 -26 -27 -49 -24 -122 16 -29 16 -111 60 -183 97 -126 66
-207 109 -377 199 -198 104 -253 129 -292 131 -35 3 -70 -12 -223 -91 -101
-52 -202 -105 -225 -118 -24 -13 -110 -58 -193 -101 -82 -43 -182 -95 -222
-117 -112 -60 -153 -39 -134 70 6 31 13 72 16 90 6 38 13 79 19 107 2 11 7 40
11 65 4 25 9 54 11 65 2 10 6 35 9 55 3 20 7 45 9 55 2 11 7 40 12 65 4 25 8
47 9 50 1 3 5 30 9 60 4 30 11 71 16 90 5 19 11 53 15 75 3 23 8 52 10 65 9
46 7 115 -4 144 -11 27 -101 117 -604 607 -128 125 -141 146 -114 182 13 18
18 20 107 33 30 4 57 8 60 9 3 1 32 5 65 9 32 4 66 9 75 11 22 4 111 16 145
21 17 2 48 6 70 9 22 4 54 9 70 11 17 2 41 6 55 9 14 2 45 7 70 10 25 3 72 10
105 15 33 5 83 12 110 16 61 7 102 24 133 53 12 12 71 122 131 244 185 377
322 651 333 665 6 7 25 12 42 10 30 -3 37 -14 258 -458z"/>
<path d="M276 2183 c-205 -67 -234 -84 -262 -150 -33 -78 1 -173 76 -210 24
-13 60 -23 80 -23 40 0 383 109 430 137 112 65 95 247 -28 299 -52 22 -83 16
-296 -53z"/>
<path d="M4544 2235 c-117 -51 -134 -230 -29 -295 17 -10 115 -46 219 -80 210
-69 256 -73 312 -31 72 53 93 163 44 234 -34 50 -62 63 -294 136 -166 53 -201
58 -252 36z"/>
<path d="M2492 794 c-34 -15 -78 -61 -91 -97 -7 -17 -11 -113 -11 -234 0 -185
2 -211 20 -247 59 -123 240 -124 299 -2 19 39 21 60 21 249 0 121 -4 217 -11
234 -33 88 -141 134 -227 97z"/>
</g>
</svg>
